<?xml version="1.0" encoding="utf-8"?>
<!-- Generator: Adobe Illustrator 27.5.0, SVG Export Plug-In . SVG Version: 6.00 Build 0)  -->
<svg version="1.1" xmlns="http://www.w3.org/2000/svg" xmlns:xlink="http://www.w3.org/1999/xlink" x="0px" y="0px"
	 viewBox="122 120 200 180" style="enable-background:new 0 0 500 500;" xml:space="preserve">
<g id="OBJECTS">
	<g>
		<path style="fill:#F1CC30;" d="M212.064,189.891c0-4.09-3.316-7.406-7.406-7.406h-70.764c-4.09,0-7.406,3.316-7.406,7.406
			c0,4.09,3.315,7.406,7.406,7.406h70.764C208.748,197.296,212.064,193.98,212.064,189.891z"/>
		<path style="fill:#F1CC30;" d="M133.894,171.788h13.165c4.09,0,7.406-3.316,7.406-7.406s-3.316-7.406-7.406-7.406h-13.165
			c-4.09,0-7.406,3.316-7.406,7.406S129.804,171.788,133.894,171.788z"/>
		<path style="fill:#F1CC30;" d="M109.62,182.485c-1.95,0-3.858,0.79-5.237,2.169c-1.379,1.379-2.169,3.286-2.169,5.237
			c0,1.95,0.79,3.857,2.169,5.237c1.379,1.379,3.286,2.169,5.237,2.169c1.95,0,3.857-0.79,5.236-2.169
			c1.379-1.379,2.169-3.286,2.169-5.237c0-1.95-0.79-3.858-2.169-5.237C113.477,183.275,111.57,182.485,109.62,182.485z"/>
		<path style="fill:#F1CC30;" d="M176.682,215.605c0-4.09-3.316-7.406-7.406-7.406h-18.925c-4.09,0-7.406,3.316-7.406,7.406
			c0,4.09,3.316,7.406,7.406,7.406h18.925C173.366,223.01,176.682,219.694,176.682,215.605z"/>
		<path style="fill:#E3811E;" d="M304.862,172.153c-9.353-9.365-22.354-15.18-36.639-15.176h-98.947
			c-4.09,0-7.406,3.316-7.406,7.406s3.316,7.406,7.406,7.406v0h98.947c10.242,0.004,19.446,4.13,26.166,10.838
			c6.708,6.72,10.835,15.924,10.838,26.166v0c-0.004,10.242-4.13,19.446-10.838,26.166c-6.72,6.708-15.924,10.835-26.166,10.838
			h-33.966c-8.07-0.003-15.473-2.561-21.556-6.923c-1.971-1.415-4.498-1.776-6.786-0.967c-2.829,1-5.776,2.116-8.634,3.238
			l3.636-5.684c2.016-2.187,2.6-5.443,1.212-8.267l-0.07-0.141c-0.035-0.072-0.082-0.136-0.119-0.206l0.005-0.003
			c-2.11-3.768-3.577-7.933-4.259-12.366c-0.622-4.042-4.404-6.815-8.446-6.192c-4.042,0.622-6.815,4.404-6.192,8.446
			c0.708,4.605,2.028,9.013,3.866,13.136l-12.653,19.777l0.005-0.008c-0.867,1.332-1.409,3.038-1.4,4.734
			c-0.003,2.506,1.102,4.772,2.708,6.279c1.603,1.526,3.79,2.414,6.068,2.411c1.095,0.001,2.192-0.206,3.194-0.586
			c0.541-0.204,1.047-0.461,1.524-0.749c1.239-0.544,4.549-1.985,8.739-3.724c3.71-1.54,8.111-3.31,12.321-4.88
			c7.827,4.747,17.038,7.49,26.837,7.487h33.966c14.285,0.004,27.286-5.811,36.639-15.176c9.365-9.353,15.18-22.354,15.176-36.639
			l0,0C320.042,194.507,314.227,181.507,304.862,172.153z"/>
		<circle style="fill:#E3811E;" cx="222.864" cy="210.018" r="8.177"/>
		<circle style="fill:#E3811E;" cx="250.635" cy="210.018" r="8.177"/>
		<circle style="fill:#E3811E;" cx="278.406" cy="210.018" r="8.177"/>
	</g>
</g>

</svg>
