<?xml version="1.0" encoding="UTF-8" standalone="no"?>
<!-- Created with Inkscape (http://www.inkscape.org/) -->

<svg
   width="200.0168mm"
   height="210.0036mm"
   viewBox="0 0 200.0168 210.0036"
   version="1.1"
   id="svg1"
   xml:space="preserve"
   inkscape:version="1.4 (86a8ad7, 2024-10-11)"
   sodipodi:docname="dibujo.svg"
   xmlns:inkscape="http://www.inkscape.org/namespaces/inkscape"
   xmlns:sodipodi="http://sodipodi.sourceforge.net/DTD/sodipodi-0.dtd"
   xmlns="http://www.w3.org/2000/svg"
   xmlns:svg="http://www.w3.org/2000/svg"><sodipodi:namedview
     id="namedview1"
     pagecolor="#ffffff"
     bordercolor="#000000"
     borderopacity="0.25"
     inkscape:showpageshadow="2"
     inkscape:pageopacity="0.0"
     inkscape:pagecheckerboard="0"
     inkscape:deskcolor="#d1d1d1"
     inkscape:document-units="mm"
     inkscape:zoom="1.0494603"
     inkscape:cx="291.57843"
     inkscape:cy="477.86465"
     inkscape:window-width="1920"
     inkscape:window-height="1051"
     inkscape:window-x="-9"
     inkscape:window-y="1341"
     inkscape:window-maximized="1"
     inkscape:current-layer="g1" /><defs
     id="defs1"><inkscape:path-effect
       effect="powerclip"
       message=""
       id="path-effect59"
       is_visible="true"
       lpeversion="1"
       inverse="true"
       flatten="false"
       hide_clip="false" /><inkscape:path-effect
       effect="powerclip"
       message=""
       id="path-effect58"
       is_visible="true"
       lpeversion="1"
       inverse="true"
       flatten="false"
       hide_clip="false" /><inkscape:path-effect
       effect="powerclip"
       message=""
       id="path-effect38"
       is_visible="true"
       lpeversion="1"
       inverse="true"
       flatten="false"
       hide_clip="false" /><inkscape:path-effect
       effect="powerclip"
       message=""
       id="path-effect1"
       is_visible="true"
       lpeversion="1"
       inverse="true"
       flatten="false"
       hide_clip="false" /><clipPath
       clipPathUnits="userSpaceOnUse"
       id="clipPath1"><path
         d="m 14.999997,13.999995 c 3.54249,-0.10825 7.08166,-0.18744 10.625,-0.25 0.99903,-0.0335 1.99805,-0.067 3.02735,-0.10156 6.11533,-0.081 9.72347,0.20362 14.34765,4.351561 1.42662,2.85325 1.31034,4.83455 1,8 -2.46247,4.01292 -4.52163,5.70548 -9,7 -3.44189,0.23603 -6.86467,0.18836 -10.3125,0.125 -0.93134,-0.009 -1.86269,-0.0181 -2.82226,-0.0273 -2.28853,-0.0235 -4.57691,-0.0593 -6.86524,-0.0977 0,-6.27 0,-12.54 0,-19.000001 z"
         fill="#e1f1f6"
         id="path1"
         style="display:none" /><path
         id="lpe_path-effect1"
         class="powerclip"
         d="M -5,-5.4171572 H 64.353874 V 70.926449 H -5 Z M 14.999997,13.999995 c 0,6.460001 0,12.730001 0,19.000001 2.28833,0.0384 4.57671,0.0742 6.86524,0.0977 0.95957,0.0092 1.89092,0.0183 2.82226,0.0273 3.44783,0.06336 6.87061,0.11103 10.3125,-0.125 4.47837,-1.29452 6.53753,-2.98708 9,-7 0.31034,-3.16545 0.42662,-5.14675 -1,-8 -4.62418,-4.147941 -8.23232,-4.432561 -14.34765,-4.351561 -1.0293,0.03456 -2.02832,0.06806 -3.02735,0.10156 -3.54334,0.06256 -7.08251,0.14175 -10.625,0.25 z" /></clipPath><clipPath
       clipPathUnits="userSpaceOnUse"
       id="clipPath38"><path
         d="m -14.53516,8.3085855 c 4.8671701,2.6323205 7.9380202,6.0459705 10.5625002,10.8750005 1.11415,7.95821 1.37029,13.5195 -3.66016,20.20704 -4.1287102,4.16262 -9.1566202,6.0414 -14.9648402,6.41796 -5.93414,-0.75354 -10.12729,-2.64215 -14.3125,-6.9375 -3.6834,-5.80844 -4.32572,-10.75238 -3.625,-17.5625 4.39697,-12.2652305 14.21482,-14.7816205 26,-13.0000005 z"
         fill="#e1f3f9"
         id="path38"
         style="display:none" /><path
         id="lpe_path-effect38"
         class="powerclip"
         d="m -61.954658,-12.026037 h 79.95599 v 76.904211 h -79.95599 z M -14.53516,8.3085855 c -11.78518,-1.78162 -21.60303,0.73477 -26,13.0000005 -0.70072,6.81012 -0.0584,11.75406 3.625,17.5625 4.18521,4.29535 8.37836,6.18396 14.3125,6.9375 5.80822,-0.37656 10.83613,-2.25534 14.9648402,-6.41796 5.03045,-6.68754 4.77431,-12.24883 3.66016,-20.20704 -2.62448,-4.82903 -5.6953301,-8.24268 -10.5625002,-10.8750005 z" /></clipPath><clipPath
       clipPathUnits="userSpaceOnUse"
       id="clipPath58"><path
         d="m 14.000001,13.999995 c 19.53846,0 19.53846,0 25.8125,5.437501 4.17192,4.88711 4.57659,8.49131 4.43359,14.8086 -0.47759,5.34451 -2.1517,9.04377 -6.24609,12.6289 -7.99049,5.65993 -11.70125,3.125 -24,3.125 0,-11.88 0,-23.76 0,-36.000001 z"
         fill="#e1f1f6"
         id="path58"
         style="display:none" /><path
         id="lpe_path-effect58"
         class="powerclip"
         d="M -5,-5 H 65.3125 V 70.504802 H -5 Z m 19.000001,18.999995 c 0,12.240001 0,24.120001 0,36.000001 12.29875,0 16.00951,2.53493 24,-3.125 4.09439,-3.58513 5.7685,-7.28439 6.24609,-12.6289 0.143,-6.31729 -0.26167,-9.92149 -4.43359,-14.8086 -6.27404,-5.437501 -6.27404,-5.437501 -25.8125,-5.437501 z" /></clipPath><filter
       id="mask-powermask-path-effect59_inverse"
       inkscape:label="filtermask-powermask-path-effect59"
       style="color-interpolation-filters:sRGB"
       height="100"
       width="100"
       x="-50"
       y="-50"><feColorMatrix
         id="mask-powermask-path-effect59_primitive1"
         values="1"
         type="saturate"
         result="fbSourceGraphic" /><feColorMatrix
         id="mask-powermask-path-effect59_primitive2"
         values="-1 0 0 0 1 0 -1 0 0 1 0 0 -1 0 1 0 0 0 1 0 "
         in="fbSourceGraphic" /></filter><clipPath
       clipPathUnits="userSpaceOnUse"
       id="clipPath59"><path
         d="m 15.000003,13.999995 c 18.16089,0 18.16089,0 22.44922,3.394541 4.34914,4.50251 6.82022,8.34202 7.05078,14.73046 -0.37365,6.26569 -2.34555,10.02506 -7,14.1875 -7.08775,5.92201 -11.7009,3.6875 -22.5,3.6875 0,-11.88 0,-23.76 0,-36.000001 z"
         fill="#e6f6fa"
         id="path59"
         style="display:none" /><path
         id="lpe_path-effect59"
         class="powerclip"
         d="M -5,-5 H 64.524404 V 70.429259 H -5 Z m 20.000003,18.999995 c 0,12.240001 0,24.120001 0,36.000001 10.7991,0 15.41225,2.23451 22.5,-3.6875 4.65445,-4.16244 6.62635,-7.92181 7,-14.1875 -0.23056,-6.38844 -2.70164,-10.22795 -7.05078,-14.73046 -4.28833,-3.394541 -4.28833,-3.394541 -22.44922,-3.394541 z" /></clipPath></defs><g
     inkscape:label="Capa 1"
     inkscape:groupmode="layer"
     id="layer1"
     transform="translate(-3.5654262,-34.228091)"><g
       id="g1"
       transform="matrix(0.26458333,0,0,0.26458333,-31.284814,12.041933)"><path
         d="m 0,0 c 2.9840084,2.6340321 4.7424266,5.7090127 6.75,9.125 0.8029622,1.358323 1.606382,2.716376 2.4101563,4.074219 l 1.3559567,2.29834 c 1.627062,2.743893 3.270629,5.477412 4.917481,8.209472 6.996976,11.60925 13.909834,23.262257 20.721924,34.980957 3.375111,5.803294 6.779658,11.584529 10.250244,17.331299 3.049043,5.05456 6.053366,10.134938 9.05542,15.217529 8.004296,13.549814 16.123887,27.025744 24.312179,40.465054 3.619615,5.9409 7.228429,11.88832 10.837082,17.83588 1.776163,2.92672 3.553612,5.85266 5.330963,8.77866 2.572688,4.23554 5.142954,8.47254 7.710934,12.71093 6.49814,10.71428 13.07942,21.37144 19.73829,31.98658 4.89175,7.80891 9.69838,15.6668 14.47607,23.54589 3.88263,6.39915 7.80699,12.77075 11.7583,19.12769 4.69334,7.55442 9.29786,15.15705 13.85596,22.7937 3.61447,6.0433 7.30047,12.03906 11.01904,18.0188 4.22746,6.79808 8.39721,13.62595 12.5,20.5 4.04065,6.7698 8.14674,13.49397 12.3125,20.1875 4.80668,7.72543 9.52024,15.50209 14.1875,23.3125 5.07655,8.49344 10.22092,16.93852 15.44751,25.34033 4.54496,7.31574 9.02504,14.66996 13.48999,22.03467 0.36237,0.59769 0.72474,1.19538 1.09808,1.81119 1.45124,2.39394 2.90231,4.78798 4.35309,7.1822 3.36264,5.54863 6.73601,11.09069 10.11133,16.63161 22.01462,36.15362 22.01462,36.15362 28.6875,47.3125 5.44564,9.10051 10.97554,18.14978 16.49512,27.20557 8.15705,13.38396 16.30376,26.77425 24.44238,40.16943 0.35907,0.59082 0.71815,1.18165 1.0881,1.79037 3.66042,6.02406 7.31216,12.05291 10.92752,18.10416 0.82637,1.38313 0.82637,1.38313 1.66944,2.79419 1.0103,1.69386 2.01858,3.38893 3.02441,5.08545 1.73742,2.91515 3.43679,5.73596 5.48584,8.44458 C 351,576 351,576 351,578 h -700 c 1.37582,-3.43955 2.59139,-6.20109 4.44141,-9.31641 0.49218,-0.83176 0.98436,-1.66353 1.49145,-2.5205 0.53778,-0.89945 1.07556,-1.79889 1.62964,-2.72559 0.56936,-0.95745 1.13873,-1.9149 1.72534,-2.90137 9.41309,-15.79067 18.97058,-31.49563 28.63745,-47.13208 7.12523,-11.52652 14.09581,-23.13331 20.99256,-34.79736 5.32249,-8.99863 10.71093,-17.94672 16.24231,-26.81909 4.39096,-7.04568 8.72032,-14.12789 13.02734,-21.2251 0.35628,-0.58705 0.71257,-1.17409 1.07965,-1.77893 5.98833,-9.87172 11.93205,-19.76995 17.86572,-29.67459 7.187,-11.99555 14.43257,-23.95476 21.70076,-35.90125 2.48656,-4.08765 4.9682,-8.17825 7.44762,-12.27023 7.88591,-13.01159 15.80921,-25.99863 23.80688,-38.94189 L -187,308.89844 c 0.55688,-0.90057 1.11375,-1.80115 1.6875,-2.72901 1.31642,-2.11031 1.31642,-2.11031 2.3125,-4.16943 4.95998,0.61633 8.93672,2.79836 13.3125,5.0625 0.74057,0.37705 1.48113,0.7541 2.24414,1.14258 1.81724,0.9262 3.63068,1.85983 5.44336,2.79492 -4.17428,7.33155 -8.54227,14.5261 -13,21.6875 -5.6003,9.00104 -11.07896,18.07028 -16.51978,27.16846 -5.43477,9.08425 -10.93931,18.12422 -16.48022,27.14404 0.71188,0.26949 1.42377,0.53899 2.15723,0.81665 5.08254,2.11569 9.79758,4.92907 14.59277,7.62085 1.06605,0.58588 2.13211,1.17176 3.23047,1.77539 1.01191,0.56783 2.02383,1.13566 3.06641,1.7207 1.38977,0.77429 1.38977,0.77429 2.80761,1.56421 C -180,402 -180,402 -179,405 c -1.02881,2.38159 -1.02881,2.38159 -2.64844,5.19922 l -1.78564,3.14307 c -0.6405,1.10392 -1.28101,2.20784 -1.94092,3.34521 -0.64179,1.12455 -1.28358,2.24909 -1.94482,3.40771 -1.28992,2.2597 -2.58366,4.51722 -3.88135,6.77247 -2.3371,4.06962 -4.63288,8.16161 -6.92383,12.25732 -2.60442,4.63686 -5.23264,9.25968 -7.875,13.875 0.54527,-0.18176 1.09055,-0.36352 1.65234,-0.55078 0.75411,-0.25137 1.50821,-0.50274 2.28516,-0.76172 0.81855,-0.27715 1.63711,-0.5543 2.48047,-0.83984 1.6592,-0.5447 3.32837,-1.06039 5.00781,-1.53907 0.76699,-0.22558 1.53399,-0.45117 2.32422,-0.68359 0.69609,-0.19336 1.39219,-0.38672 2.10938,-0.58594 6.50111,-3.15565 9.32168,-9.56957 12.51562,-15.66406 3.50432,-6.53838 7.08981,-12.88469 11.15625,-19.08984 1.3754,-2.13992 2.62659,-4.30232 3.84375,-6.53516 7.0862,-12.98375 15.13038,-25.45947 22.93115,-38.01953 1.66831,-2.6893 3.33228,-5.38124 4.99463,-8.07422 5.19338,-8.41092 10.40933,-16.80563 15.69922,-25.15625 9.41553,-14.86859 18.62731,-29.85992 27.762451,-44.9021 4.480543,-7.3717 9.009257,-14.71244 13.55835,-22.04199 3.375746,-5.44156 6.724732,-10.89844 10.054199,-16.36841 4.410215,-7.2385 8.882689,-14.43719 13.375,-21.625 0.614077,-0.98267 1.228154,-1.96534 1.86084,-2.97778 1.792649,-2.86394 3.590562,-5.72452 5.38916,-8.58472 0.616816,-0.98758 1.233633,-1.97517 1.869141,-2.99268 0.605214,-0.96276 1.210429,-1.92553 1.833984,-2.91748 0.537861,-0.85859 1.075723,-1.71719 1.629883,-2.6018 2.929626,-4.37256 5.172599,-7.29678 9.868164,-9.73682 2.956652,-1.74687 2.956652,-1.74687 4.498291,-4.69253 0.226849,-2.39781 0.201849,-4.67272 0.08179,-7.07822 -0.01698,-1.28786 -0.01698,-1.28786 -0.0343,-2.60173 -0.04466,-2.73272 -0.144985,-5.46012 -0.246948,-8.19124 -0.04014,-1.85604 -0.07664,-3.71217 -0.109375,-5.56836 C -27.697412,168.07739 -27.835373,163.53959 -28,159 l -0.94313,1.65015 c -6.04154,10.56388 -12.225518,21.00727 -18.745835,31.28247 -1.374956,2.16818 -2.743938,4.34004 -4.111816,6.51269 -4.152362,6.59109 -8.314136,13.17588 -12.511719,19.73828 -11.700154,18.2993 -23.104479,36.77568 -34.254883,55.41504 -8.827817,14.75669 -17.761617,29.43364 -27.037107,43.91382 -5.29061,8.2767 -10.43393,16.64055 -15.56812,25.01489 -4.42363,7.20929 -8.90171,14.38033 -13.43432,21.52149 C -160.48331,373.31689 -166.23955,382.6596 -172,392 c -3.98886,-1.25164 -7.65719,-2.71585 -11.375,-4.625 -0.87398,-0.44602 -1.74797,-0.89203 -2.64844,-1.35156 C -186.6757,385.6857 -187.32797,385.34797 -188,385 c 0.64097,-3.28452 1.84323,-5.6358 3.625,-8.45703 l 1.62744,-2.59839 L -181,371.1875 c 1.19612,-1.90835 2.39143,-3.8172 3.58594,-5.72656 0.5862,-0.9349 1.1724,-1.86979 1.77636,-2.83301 2.12807,-3.41481 4.20491,-6.85796 6.2627,-10.31543 3.19359,-5.35553 6.4292,-10.68359 9.6875,-16 1.89773,-3.10301 3.79309,-6.20746 5.6875,-9.3125 0.54753,-0.8967 1.09506,-1.79341 1.65918,-2.71729 1.68101,-2.75795 3.35545,-5.5198 5.02832,-8.28271 0.52956,-0.86714 1.05913,-1.73427 1.60474,-2.62769 0.48493,-0.80348 0.96985,-1.60697 1.46948,-2.43481 0.43272,-0.71285 0.86544,-1.4257 1.31128,-2.16016 1.08115,-1.7388 1.08115,-1.7388 0.927,-3.77734 -3.31197,-1.89676 -6.62467,-3.79223 -9.9375,-5.6875 -0.92619,-0.53045 -1.85238,-1.0609 -2.80664,-1.60742 C -160.47342,294.42833 -166.22136,291.18892 -172,288 c 0.58193,-4.30747 2.1184,-7.23001 4.39453,-10.91016 0.3432,-0.55991 0.6864,-1.11982 1.03999,-1.6967 1.11922,-1.82281 2.24856,-3.63913 3.37798,-5.45564 0.78255,-1.27066 1.56428,-2.54183 2.34521,-3.81348 1.17638,-1.91518 2.35334,-3.82997 3.53321,-5.74301 3.19497,-5.18076 6.32362,-10.3991 9.43408,-15.63101 4.87188,-8.1601 9.90154,-16.21604 14.95532,-24.2644 6.72325,-10.72739 13.27951,-21.55396 19.83254,-32.38575 3.47745,-5.74766 6.96834,-11.48711 10.46214,-17.22485 0.57444,-0.94384 1.14888,-1.88767 1.74072,-2.86011 2.551289,-4.19045 5.105459,-8.37906 7.669436,-12.56177 9.390865,-15.31994 18.640114,-30.72496 27.800782,-46.18359 0.390747,-0.65934 0.781494,-1.31869 1.184082,-1.99802 1.606049,-2.71029 3.212061,-5.4206 4.817504,-8.131251 C -53.756929,89.59457 -48.03238,80.094304 -42.25,70.625 -36.196024,60.70939 -30.321197,50.701614 -24.546631,40.620605 -20.048823,32.780898 -15.461919,25.000356 -10.8125,17.25 l 1.8911133,-3.156982 C -6.0490713,9.3204276 -3.1493585,4.5950938 0,0 Z"
         fill="#011f3a"
         transform="translate(511,126)"
         id="path2"
         sodipodi:nodetypes="ccccccccscccccccsscccssccccscsccccccccccccscccccccccccccccccccccccccccsccccccccccccccsccccccccccccccccscccccccccccccccccccccccccccccccccccsccccccc" /><path
         d="m 173,431.00074 13.41275,16.48515 -16.00231,-0.24315 -27.41044,0.758 v 16 h 6 l 14,-7.3e-4 h 112 v -1 c -1.42955,-0.83644 -2.85984,-1.67165 -4.29297,-2.50195 -0.62289,-0.36059 -1.22746,-0.71057 -1.83203,-1.06055 -1.8167,-1.05665 -3.63637,-2.10892 -5.47815,-3.12122 -0.81493,-0.44753 -1.60589,-0.88191 -2.39685,-1.31628 -8.47062,-4.9414 -14.91501,-7.78625 -24.88657,-7.94554 -1.9415,0.0222 -3.88323,0.0428 -5.82481,0.0292 -3.46935,-0.0395 -6.93725,-0.0567 -10.40678,-0.039 -3.58267,0.0188 -7.16436,0.008 -10.74697,-0.0162 -5.9193,-0.0408 -11.83795,-0.0607 -17.75743,-0.0478 C 189.54911,446.9873 187.77456,446.994 186,447 M -11,431.00074 v 17 c 1.6050188,-0.0111 3.2100375,-0.0222 4.8636932,-0.0337 15.111884,-0.10127 30.2236438,-0.17657 45.3357798,-0.22541 7.769667,-0.0258 15.53908,-0.0609 23.308584,-0.11814 6.772085,-0.0498 13.543986,-0.0821 20.316249,-0.0932 3.585821,-0.007 7.171117,-0.0218 10.75677,-0.0582 4.003403,-0.0403 8.005894,-0.0413 12.009504,-0.039 1.18827,-0.018 2.37653,-0.036 3.60081,-0.0545 8.94813,0.0563 8.94813,0.0563 12.08029,2.92711 C 123,453 123,453 123.0625,456.6875 c -0.27391,4.32772 -0.75185,4.77745 -3.18455,6.95351 -0.63937,0.18563 -0.14722,-0.0456 -0.80597,0.14562 L 118,464 c -22.339597,0.11676 -44.679144,0.20495 -67.018985,0.25906 -10.3726,0.0258 -20.745011,0.061 -31.11749,0.11814 -9.039806,0.0498 -18.0794747,0.0821 -27.1194142,0.0932 -4.7874268,0.007 -9.5744608,0.0219 -14.3617618,0.0582 -4.5054,0.0339 -9.010246,0.0444 -13.515762,0.0369 -1.654027,0.001 -3.308072,0.0113 -4.961989,0.0305 -2.258528,0.0249 -4.514963,0.0189 -6.77354,0.005 -1.895668,0.007 -1.895668,0.007 -3.829631,0.014 C -54.903112,463.8317 -56.381887,462.31417 -59,459 c -0.625,-3 -0.625,-3 0,-6 2.603439,-3.27514 4.052308,-4.83344 8.229736,-5.56763 1.783136,0.0393 1.783136,0.0393 3.602295,0.0794 1.292285,0.0161 2.584571,0.0322 3.916016,0.0488 1.354835,0.0418 2.709652,0.0841 4.064453,0.12695 1.374309,0.0251 2.748661,0.0479 4.123047,0.0684 3.355288,0.0589 6.71001,0.14854 10.064453,0.24414 v -17 h -185 v -2 c 1.01578,-0.49629 2.03156,-0.99258 3.07813,-1.50391 1.39068,-0.68608 2.7813,-1.37229 4.17187,-2.05859 0.73581,-0.35844 1.47163,-0.71688 2.22974,-1.08618 4.34021,-2.14625 8.23323,-4.50838 12.20776,-7.28882 8.13562,-4.97868 18.0604,-4.16521 27.3125,-4.0625 0.31969,-0.92941 0.63938,-1.85883 0.96875,-2.81641 2.67053,-6.82376 5.16393,-11.44091 12.00195,-14.6228 4.91059,-1.99061 9.77872,-3.6925 15.0293,-4.56079 -2.54733,7.64199 -6.39753,14.79506 -10,22 l 142,1 v -58 h -117 v -2 c 0.55043,-0.29391 1.10086,-0.58781 1.66797,-0.89063 6.82424,-3.68191 13.58418,-7.47713 20.33203,-11.29687 0.932234,-0.52304 1.864468,-1.04607 2.824951,-1.58496 0.882766,-0.50177 1.765532,-1.00354 2.675049,-1.52051 0.794062,-0.44883 1.588125,-0.89767 2.40625,-1.36011 3.746423,-2.4101 5.800499,-5.25293 8.140625,-9.01098 0.590471,-0.94529 1.180942,-1.89057 1.789307,-2.8645 0.63156,-1.02183 1.26312,-2.04365 1.913818,-3.09644 0.656697,-1.05727 1.313394,-2.11455 1.98999,-3.20386 4.826993,-7.79586 9.593944,-15.62766 14.32251,-23.48364 0.606182,-1.00563 1.212363,-2.01126 1.836914,-3.04736 C -54.23297,286.18017 -50.554546,279.63726 -47,273 c -0.764414,-0.40726 -1.528828,-0.81453 -2.316406,-1.23413 C -74.963249,258.0918 -74.963249,258.0918 -84.6875,252.6875 c -0.645176,-0.35377 -1.290352,-0.70753 -1.955078,-1.07202 C -90.881693,249.23661 -90.881693,249.23661 -92,247 c 0.75,-1.57446 0.75,-1.57446 2,-3.47266 0.467446,-0.72211 0.934893,-1.44423 1.416504,-2.18823 0.522554,-0.79253 1.045107,-1.58506 1.583496,-2.40161 5.031618,-7.78609 9.879877,-15.66114 14.625,-23.625 1.270395,-2.12136 2.54122,-4.24246 3.8125,-6.36328 1.7109,-2.855 3.420652,-5.71054 5.121094,-8.57178 1.344488,-2.25766 2.703001,-4.50617 4.066406,-6.75244 0.565818,-0.96233 0.565818,-0.96233 1.143066,-1.94409 2.263843,-3.69163 4.253128,-5.91324 8.231934,-7.68091 5.546889,-1.18468 10.062706,-0.40746 14.875,2.5625 4.079791,3.08878 6.303263,5.63474 8.125,10.4375 -0.313596,5.80755 -1.666042,10.27601 -4.375,15.4375 -0.345066,0.67305 -0.690132,1.3461 -1.045654,2.03955 -2.87055,5.46191 -6.063531,10.7046 -9.391846,15.89795 -0.467769,0.73146 -0.935537,1.46292 -1.41748,2.21655 l -1.352051,2.05689 c -0.394212,0.59989 -0.788423,1.19979 -1.19458,1.81787 -1.718019,2.15378 -3.413335,3.40794 -6.160889,3.83447 -5.4725,0.0311 -5.4725,0.0311 -8.0625,-1.42578 -1.485491,-2.7853 -1.380507,-4.76753 -1,-7.875 1.125,-2.25 1.125,-2.25 3,-4 1.363184,-0.28037 1.363184,-0.28037 2.753906,-0.56641 4.817912,-2.12776 6.479121,-5.67336 9.058594,-10.12109 0.489199,-0.79084 0.978398,-1.58168 1.482422,-2.39648 2.79923,-4.68862 4.50775,-8.42607 4.705078,-13.91602 -0.897576,-2.1478 -0.897576,-2.1478 -3,-3 -2.88934,-0.35285 -2.88934,-0.35285 -6,1 -2.452002,2.94483 -4.18,6.26425 -6,9.625 -1.126976,1.99588 -2.255954,3.99064 -3.386719,5.98437 l -1.770996,3.15821 c -3.100739,5.44047 -6.380452,10.77026 -9.654785,16.10742 -1.194159,1.95564 -2.388183,3.91136 -3.582031,5.86719 -0.868276,1.4194 -1.736677,2.83872 -2.605469,4.25781 3.857492,3.33516 7.933216,5.6654 12.488281,7.89062 l 2.130905,1.05903 c 2.228332,1.10582 4.460705,2.20319 6.693314,3.30035 1.519156,0.75205 3.038039,1.50465 4.556641,2.25781 3.707163,1.83712 7.417972,3.66667 11.130859,5.49219 0.427566,-1.12124 0.427566,-1.12124 0.86377,-2.26514 0.968757,-2.33176 1.996353,-4.35101 3.315918,-6.49267 0.427968,-0.69795 0.855937,-1.3959 1.296875,-2.11499 0.461484,-0.74323 0.922968,-1.48645 1.398437,-2.2522 0.727031,-1.18155 0.727031,-1.18155 1.46875,-2.38696 3.014177,-4.88403 6.077292,-9.73552 9.160889,-14.57593 4.632804,-7.27937 9.181166,-14.6004 13.557861,-22.03711 0.4531055,-0.75724 0.9062109,-1.51449 1.3730469,-2.29468 C 4.8297693,188.9884 5.1609967,164.5905 2.7849121,142.69165 2.0757501,136.13299 1.6294911,129.58906 1.342041,122.99902 1.2008297,119.93621 0.99380865,116.96268 0.49171448,113.9359 -0.12863115,108.97038 -0.13143555,104.10626 -0.11352539,99.107666 l -4.4251e-4,-3.254288 c 6.9408e-4,-3.533178 0.008463,-7.066303 0.01631165,-10.599472 0.001866,-2.456222 0.003289,-4.912445 0.0042877,-7.368667 0.003811,-6.452581 0.01362926,-12.90514 0.02470398,-19.357712 C -0.05842004,51.938276 -0.0538644,45.349022 -0.04882812,38.759766 -0.03811573,25.839834 -0.02105629,12.919919 0,0 h 14 c 0.06999,13.701462 0.123056,27.402881 0.155437,41.104486 0.01555,6.364488 0.0366,12.728852 0.07088,19.093268 0.03297,6.159775 0.05061,12.319433 0.05831,18.47929 0.0055,2.33193 0.01617,4.663856 0.03256,6.995735 0.09566,14.195503 -0.71702,27.799851 -2.949566,41.821221 -0.755149,5.14766 -1.225283,10.32861 -1.719258,15.50668 -0.5547276,5.64646 -0.5547276,5.64646 -1.1647234,7.94512 -5.600037,23.78532 2.9313114,49.00237 15.1945804,68.89404 2.117471,3.46055 4.152261,6.96871 6.196777,10.47266 3.584572,6.10794 7.220921,12.18345 10.875,18.25 5.063493,8.41131 10.025775,16.8788 14.963379,25.3645 8.132219,13.97243 16.362889,27.88634 24.661621,41.7605 0.463579,0.77698 0.927158,1.55396 1.404785,2.35449 0.91426,1.52453 1.838081,3.04336 2.77124,4.5564 1.028411,1.70454 2.01022,3.43759 2.958496,5.18799 4.338222,7.61472 9.054749,11.11932 16.802982,15.02612 1.9759,1.04698 3.95116,2.09515 5.92578,3.14453 0.95471,0.49839 1.90943,0.99677 2.89307,1.51026 4.37987,2.34015 8.74335,4.76343 12.86865,7.53271 v 1 H 11.999997 v 58 H 153 l -10,-21 v -2 c 0.66129,0.2707 1.32258,0.54141 2.00391,0.82031 2.23768,0.88107 4.50031,1.69925 6.77343,2.48438 7.3368,2.6901 12.55915,4.6543 16.22266,12.00781 2,4.98125 2,4.98125 2,7.6875 1.31613,-0.0696 2.63227,-0.13922 3.98828,-0.21094 C 184.74011,413.38774 191.96932,413.6878 201,420 c 2.45449,1.46073 4.94702,2.85179 7.4375,4.25 1.16574,0.67122 2.33113,1.34305 3.49609,2.01562 2.33151,1.31872 4.65456,2.5729 7.06641,3.73438 v 1 h -41"
         fill="#7bc57c"
         transform="translate(506,217)"
         id="path3"
         sodipodi:nodetypes="cccccccccccccccccccccccsccccccccccsccccccccccccccccccccccccccccccccccccccccccccccccccccccccccccccccccccccccccccccccccccccccccccccccccccccccccccccccccccccccccccccccccccccccccc" /><path
         d="m 0,0 c 0.33,0 0.66,0 1,0 0.2481503,5.5681119 0.4290673,11.132978 0.5493164,16.705322 0.050139,1.892823 0.1182747,3.785262 0.2050781,5.676758 C 2.4613802,38.189448 2.4613802,38.189448 -1.123291,42.630615 -3.6750899,44.337839 -6.2456161,45.655286 -9,47 c -2.475666,2.808318 -2.475666,2.808318 -4.1875,5.9375 -0.736367,1.225628 -1.4734,2.450857 -2.210938,3.675781 -0.403154,0.685298 -0.806308,1.370596 -1.221679,2.07666 -2.184505,3.657075 -4.474068,7.247178 -6.747559,10.849366 -5.929423,9.40773 -11.728257,18.887563 -17.422363,28.439209 -3.428874,5.744924 -6.937489,11.433484 -10.499023,17.096924 -3.04623,4.84765 -6.044507,9.72279 -9.023438,14.61206 -9.187366,15.06904 -18.51625,30.04909 -27.883057,45.00708 -5.38683,8.61327 -10.708284,17.26592 -16.020993,25.92505 -4.00219,6.51404 -8.05341,12.99324 -12.15845,19.44287 -4.18201,6.57533 -8.20559,13.22588 -12.12524,19.96069 -2.37361,4.07687 -4.80598,8.10433 -7.31226,12.10181 -4.42053,7.10894 -8.47715,14.42053 -12.53247,21.74268 -6.06507,10.86746 -10.29462,16.43479 -22.31128,20.48388 -2.75801,0.76305 -5.51657,1.21786 -8.34375,1.64844 5.61465,-11.85704 12.05569,-23.14386 18.73047,-34.43359 2.08752,-3.54215 4.16518,-7.08866 6.19531,-10.66407 0.40259,-0.70777 0.80518,-1.41555 1.21997,-2.14477 0.99996,-1.73167 0.99996,-1.73167 0.85425,-3.75757 -13.86,-7.92 -13.86,-7.92 -28,-16 1.59055,-3.97639 3.17206,-7.12618 5.38672,-10.73438 0.68369,-1.11914 1.36737,-2.23829 2.07178,-3.39135 0.74295,-1.20812 1.48596,-2.41621 2.229,-3.62427 1.54977,-2.53158 3.09707,-5.06467 4.64453,-7.59766 0.58793,-0.96109 0.58793,-0.96109 1.18775,-1.9416 3.83264,-6.27124 7.59326,-12.58436 11.35522,-18.89824 5.82567,-9.75592 11.88131,-19.31867 18.125,-28.8125 -6.27,-3.3 -12.54,-6.6 -19,-10 1.32,-2.31 2.64,-4.62 4,-7 0.92003,-1.64395 1.83726,-3.28949 2.75,-4.9375 0.64195,-1.15822 0.64195,-1.15822 1.29688,-2.33984 0.47179,-0.85272 0.47179,-0.85272 0.95312,-1.72266 0.33,0.66 0.66,1.32 1,2 1.99707,0.67538 3.99765,1.34041 6,2 2.04866,1.10416 4.06634,2.26716 6.05469,3.47656 1.66289,1.00547 1.66289,1.00547 3.35937,2.03125 1.15373,0.7056 2.30737,1.41133 3.46094,2.11719 1.17675,0.71409 2.35383,1.42763 3.53125,2.14062 2.86785,1.73952 5.73225,3.48445 8.59375,5.23438 -1.36727,3.64497 -3.00997,6.92373 -4.97656,10.28125 -0.58443,1.00055 -1.16886,2.00111 -1.771,3.03198 -0.61955,1.05164 -1.23911,2.10327 -1.87744,3.18677 -0.63374,1.08064 -1.26747,2.16127 -1.92041,3.27466 -4.39121,7.4691 -8.86248,14.87796 -13.45459,22.22534 -1.27249,2.06148 -2.54326,4.12402 -3.8125,6.1875 -0.65098,1.05832 -1.30195,2.11664 -1.97266,3.20703 -0.7384,1.20175 -1.47667,2.40358 -2.21484,3.60547 -0.44843,0.73009 -0.89687,1.46019 -1.35889,2.2124 -1.465,2.38674 -2.92826,4.77454 -4.39111,7.1626 -0.45995,0.74919 -0.91991,1.49837 -1.3938,2.27026 -2.69832,4.40941 -5.31443,8.85319 -7.8562,13.35474 1.2375,0.37125 1.2375,0.37125 2.5,0.75 3.44741,1.23122 6.54083,2.73292 9.76563,4.44531 1.71808,0.94498 1.71808,0.94498 3.73437,0.80469 1.5489,-2.40974 2.97464,-4.81752 4.375,-7.3125 3.67771,-6.40412 7.4687,-12.70949 11.4375,-18.9375 4.21066,-6.61935 8.37939,-13.26168 12.5,-19.9375 4.70505,-7.61939 9.4367,-15.22155 14.1875,-22.8125 9.69826,-15.5061 19.332304,-31.04695 28.8125,-46.6875 C -59.523289,95.594167 -46.206882,73.977541 -32.535156,52.574219 -22.771596,37.282936 -13.203388,21.900492 -4.0830078,6.2155762 -1.1019586,1.1019586 -1.1019586,1.1019586 0,0 Z"
         fill="#76c5d8"
         transform="translate(483,284)"
         id="path4" /><path
         d="m 0,0 c 2.3082393,2.2409552 3.9001928,4.3253373 5.5,7.125 2.791512,4.753862 5.740937,9.382591 8.75,14 C 23.435878,35.251248 32.238175,49.607952 41,64 c 3.844168,-1.473028 7.497994,-3.19111 11.175781,-5.039063 l 3.50586,-1.757812 C 56.891949,56.593794 58.102235,55.984418 59.3125,55.375 60.542225,54.757627 61.772042,54.140438 63.001953,53.523437 66.002212,52.017425 69.00152,50.509551 72,49 c 2.514656,2.399903 4.574316,4.632267 6.296875,7.652344 L 79.499268,58.733398 80.75,60.9375 c 0.893532,1.546151 1.788071,3.09172 2.683594,4.636719 l 1.327636,2.29834 c 2.590729,4.449272 5.316945,8.815311 8.03418,13.187988 1.439029,2.316912 2.874626,4.635936 4.310059,6.955078 l 1.681885,2.715332 c 1.136871,1.838117 2.271496,3.677626 3.403806,5.518555 2.4337,3.951318 4.87511,7.886338 7.45728,11.742678 0.3822,0.58201 0.76441,1.16402 1.1582,1.76367 0.98582,1.49404 1.99108,2.97521 2.99805,4.45508 1.5679,3.65844 1.12256,5.97044 0.19531,9.78906 -3.15575,3.7869 -7.38163,3.48424 -12,4 C 95.026727,117.13409 88.264355,106.16957 81.744385,95.025391 77.95811,88.56905 74.056786,82.199742 69.981934,75.921143 68.119373,73.009068 66.516118,70.457988 66,67 c -1.921548,0.90639 -3.837067,1.825568 -5.75,2.75 l -3.234375,1.546875 C 54.133052,72.924856 52.195737,74.548449 50,77 l 1.660156,2.621094 c 5.9065,9.367787 11.638954,18.833284 17.321045,28.338626 3.367516,5.63007 6.747361,11.25196 10.16333,16.85278 0.346683,0.56849 0.693365,1.13697 1.050553,1.72269 0.348364,0.5712 0.696728,1.14241 1.055648,1.73092 8.414427,13.79725 16.637623,27.69822 24.782078,41.65627 3.21995,5.51637 6.4648,11.01783 9.71719,16.51512 0.52038,0.88019 1.04076,1.76038 1.5769,2.66724 2.64362,4.47002 5.29146,8.93752 7.94263,13.40307 C 138.4327,224.6991 151.11781,247.09501 163,270 c 0.37479,0.68393 0.74959,1.36786 1.13574,2.07251 1.27752,2.36426 1.7742,3.1296 2.86426,4.92749 1.72656,2.55469 1.72656,2.55469 3.625,5.875 0.63164,1.09055 1.26328,2.18109 1.91406,3.30469 C 174,289 174,289 174,291 c -3.0247,-0.60494 -6.00484,-1.26804 -9,-2 -1.02094,-0.24492 -2.04188,-0.48984 -3.09375,-0.74219 -9.06489,-2.53547 -9.06489,-2.53547 -11.78125,-6.82031 -0.73666,-1.46526 -1.4435,-2.94578 -2.125,-4.4375 -0.90779,-1.67152 -1.82519,-3.33784 -2.75,-5 -0.76377,-1.41539 -0.76377,-1.41539 -1.54297,-2.85938 -3.05849,-5.62707 -6.2214,-11.19582 -9.3706,-16.77246 -1.428,-2.53042 -2.85296,-5.06254 -4.27784,-7.59472 -13.3515,-23.70434 -26.98715,-47.21724 -41.124996,-70.46094 -1.088469,-1.78965 -2.176905,-3.57933 -3.265259,-5.36905 -0.737303,-1.21243 -1.47469,-2.42481 -2.212158,-3.63715 C 78.711861,157.50463 74.007971,149.68098 69.375,141.8125 58.133891,122.72521 46.696253,103.77844 34.901367,85.027832 32.280588,80.854372 29.674449,76.671842 27.067871,72.489502 24.596194,68.527303 22.115895,64.570542 19.634766,60.614258 18.159817,58.255573 16.695606,55.890632 15.234375,53.523437 14.448347,52.265356 13.661928,51.007519 12.875,49.75 L 10.929688,46.609375 C 8.4222311,43.218725 5.6272692,40.831893 1.8676758,38.909912 -0.5787443,36.408168 -0.45457305,34.418619 -0.45318604,31.018875 l 0.062561,-2.405594 0.0171509,-2.475784 c 0.0223872,-2.608929 0.0725857,-5.216483 0.12347412,-7.824997 0.0200621,-1.76886 0.0383134,-3.537742 0.0546875,-5.306641 C -0.1512148,8.6700434 -0.08217294,4.3352547 0,0 Z"
         fill="#8ddee9"
         transform="translate(541,288)"
         id="path5"
         sodipodi:nodetypes="cccccccccccccccccccccccccccccccsscccccccccccccccccccssccccccccccccccc" /><path
         d="m 0,0 c 7.0421222,5.6313464 11.672175,12.809072 12.96875,21.804687 0.356733,10.506366 -2.190886,19.597254 -8.875,27.789063 -6.3556742,6.690986 -14.300036,10.02626 -23.479736,10.284424 -1.187589,-0.0035 -1.187589,-0.0035 -2.39917,-0.0071 -0.829754,-0.0017 -1.659507,-0.0034 -2.514405,-0.0051 -7.476845,-0.217194 -13.048592,-2.307612 -19.235595,-6.557373 -0.621328,-0.406055 -1.242657,-0.81211 -1.882813,-1.230469 -6.310271,-4.645501 -9.330414,-11.363827 -11.117187,-18.769531 -1.178497,-10.277852 -0.0847,-18.491419 6,-27.0000003 C -37.066895,-8.7966932 -16.94878,-11.307892 0,0 Z"
         fill="#05203b"
         transform="translate(554.53516,776.69141)"
         id="path6"
         clip-path="url(#clipPath38)"
         inkscape:path-effect="#path-effect38"
         inkscape:original-d="m 0,0 c 7.0421222,5.6313464 11.672175,12.809072 12.96875,21.804687 0.356733,10.506366 -2.190886,19.597254 -8.875,27.789063 -6.3556742,6.690986 -14.300036,10.02626 -23.479736,10.284424 -1.187589,-0.0035 -1.187589,-0.0035 -2.39917,-0.0071 -0.829754,-0.0017 -1.659507,-0.0034 -2.514405,-0.0051 -7.476845,-0.217194 -13.048592,-2.307612 -19.235595,-6.557373 -0.621328,-0.406055 -1.242657,-0.81211 -1.882813,-1.230469 -6.310271,-4.645501 -9.330414,-11.363827 -11.117187,-18.769531 -1.178497,-10.277852 -0.0847,-18.491419 6,-27.0000003 C -37.066895,-8.7966932 -16.94878,-11.307892 0,0 Z" /><path
         d="M 0,0 C 40.586813,0 40.586813,0 49.992187,7.9726562 56.506575,14.550414 60.017573,21.489288 60.3125,30.75 60.127775,40.675896 57.315873,48.0847 50.75,55.5625 35.818485,68.797252 21.054407,65 0,65 0,43.55 0,22.1 0,0 Z"
         fill="#041f3c"
         transform="translate(594,771)"
         id="path7"
         clip-path="url(#clipPath58)"
         inkscape:path-effect="#path-effect58"
         inkscape:original-d="M 0,0 C 40.586813,0 40.586813,0 49.992187,7.9726562 56.506575,14.550414 60.017573,21.489288 60.3125,30.75 60.127775,40.675896 57.315873,48.0847 50.75,55.5625 35.818485,68.797252 21.054407,65 0,65 0,43.55 0,22.1 0,0 Z" /><path
         d="M 0,0 C 40.87301,0 40.87301,0 50.386719,9.2773438 58.380059,17.812606 59.841779,25.160912 59.472656,36.46875 58.853967,44.727136 55.156042,51.298029 49.25,57 34.98708,68.224179 17.45017,65 0,65 0,43.55 0,22.1 0,0 Z"
         fill="#05203c"
         transform="translate(762,771)"
         id="path8"
         clip-path="url(#clipPath59)"
         inkscape:path-effect="#path-effect59"
         inkscape:original-d="M 0,0 C 40.87301,0 40.87301,0 50.386719,9.2773438 58.380059,17.812606 59.841779,25.160912 59.472656,36.46875 58.853967,44.727136 55.156042,51.298029 49.25,57 34.98708,68.224179 17.45017,65 0,65 0,43.55 0,22.1 0,0 Z" /><path
         d="M -32.830401,17.002307 C -28.245702,26.171705 -40.804249,21.689164 -33,17 c 1.774556,-0.0064 3.549111,-0.01273 5.377441,-0.01929 5.919478,-0.01295 11.838126,0.0067 17.7574257,0.04775 3.5826139,0.02367 7.1643064,0.03498 10.74696924,0.01621 3.46953896,-0.01769 6.93743856,-5.24e-4 10.40678006,0.039 1.941583,0.01357 3.883311,-0.0073 5.824818,-0.02922 C 27.084991,17.213748 33.529378,20.058601 42,25 l 2.396851,1.316284 c 1.841779,1.012299 3.661451,2.064565 5.478149,3.121216 l 1.832031,1.060547 C 53.140159,31.328351 54.570445,32.163558 56,33 v 1 H -56 -70 -76 V 18 l 20.381568,-0.589559 7.685726,-0.09084 z"
         fill="#3c7b9d"
         transform="translate(725,647)"
         id="path9"
         sodipodi:nodetypes="cccccccccccccccccccc" /><path
         d="m 0,0 19.375,-0.25 6.052246,-0.11035156 C 44.337265,-0.56467281 44.337265,-0.56467281 52.4375,5.9648437 57.315819,12.123721 59.66761,17.829963 59.320312,24.371094 58.99169,30.560477 56.017459,37.361103 51,41 c -2.760479,2.002029 -3.25,1.8125 -6,3 3.018044,5.021504 5.491969,8.644163 8.118187,13.039301 1.751285,2.930882 4.04319,5.739609 5.09237,8.887148 -12.602648,-0.08263 -11.928867,-0.419522 -18,0 C 37.68316,62.108834 35.344849,58.118434 33,54 31.122388,50.662056 30.667615,49.786159 28.905741,46.761782 24.794395,45.890958 19.240731,46.047119 15,46 V 65 H 0 Z"
         fill="#051f38"
         transform="translate(284,771)"
         id="path10"
         clip-path="url(#clipPath1)"
         inkscape:path-effect="#path-effect1"
         inkscape:original-d="m 0,0 19.375,-0.25 6.052246,-0.11035156 C 44.337265,-0.56467281 44.337265,-0.56467281 52.4375,5.9648437 57.315819,12.123721 59.66761,17.829963 59.320312,24.371094 58.99169,30.560477 56.017459,37.361103 51,41 c -2.760479,2.002029 -3.25,1.8125 -6,3 3.018044,5.021504 5.491969,8.644163 8.118187,13.039301 1.751285,2.930882 4.04319,5.739609 5.09237,8.887148 -12.602648,-0.08263 -11.928867,-0.419522 -18,0 C 37.68316,62.108834 35.344849,58.118434 33,54 31.122388,50.662056 30.667615,49.786159 28.905741,46.761782 24.794395,45.890958 19.240731,46.047119 15,46 V 65 H 0 Z"
         sodipodi:nodetypes="ccccascacccccccc"
         inkscape:label="path10" /><path
         d="m 0,0 c 4.2975582,0.06483284 8.5951512,0.06213966 12.893121,0.06807017 7.192503,0.01919569 14.383447,0.08241314 21.575332,0.17738343 9.224828,0.12165744 18.448654,0.17320594 27.674188,0.20192813 7.96606,0.0248895 15.931909,0.0765328 23.897785,0.13511253 1.703065,0.0121312 3.406136,0.0233523 5.109213,0.0336671 4.840893,0.029365 9.681191,0.0728808 14.521701,0.14051699 1.46368,0.01833 2.92743,0.0317013 4.3912,0.0397282 1.99844,0.0119879 3.99672,0.0442922 5.99492,0.0776024 1.11721,0.0128204 2.23443,0.0256409 3.3855,0.0388498 3.36522,0.45318015 5.28512,1.37683205 7.99009,3.40266325 0.66407,2.1210937 0.66407,2.1210937 0.625,4.4375 0.0129,0.7618359 0.0258,1.523672 0.0391,2.308594 -0.99645,3.382066 -2.73107,4.362963 -5.66407,6.253906 -2.65956,0.376887 -4.89694,0.525315 -7.54866,0.481018 -0.75156,0.0034 -1.50312,0.0068 -2.27746,0.01036 -2.51383,0.0066 -5.0266,-0.0154 -7.54033,-0.03727 -1.80367,-0.0011 -3.60734,-4.95e-4 -5.411013,0.0018 -4.894337,0.0011 -9.788282,-0.02238 -14.682528,-0.0503 -5.115585,-0.025 -10.231178,-0.02736 -15.346815,-0.0321 C 59.940087,17.6766 50.25408,17.64377 40.567973,17.60363 29.540251,17.558895 18.51255,17.536897 7.48479,17.516816 -15.199223,17.475001 -37.883075,17.40464 -60.566947,17.315522 -41.103442,1.6069134 -24.103995,-0.43269559 0,0 Z"
         fill="#377ea2"
         transform="translate(304.56695,663.68448)"
         id="path11" /><path
         d="M 0,0 C 0.92683594,-0.01675781 1.8536719,-0.03351563 2.8085938,-0.05078125 6.9640839,0.49738979 9.6393125,2.2374099 12.362305,5.4084473 16.488138,11.533235 20.243734,17.785915 23.8125,24.25 c 1.124113,2.013516 2.249129,4.026528 3.375,6.039062 0.559453,1.001924 1.118906,2.003848 1.695312,3.036133 3.058571,5.439633 6.200813,10.830507 9.340821,16.223389 0.426357,0.732913 0.852715,1.465825 1.291992,2.220947 0.372861,0.639134 0.745723,1.278267 1.129883,1.936768 C 42.840973,57.55187 43.351194,60.94788 42.5625,65.3125 39.981287,70.589223 36.179575,74.383263 30.769531,76.679687 26.66797,77.85571 22.702702,78.474005 18.5625,77.3125 12.127639,73.362086 8.9551458,67.436582 5.5,60.9375 4.3795264,58.889572 3.2570599,56.842734 2.1328125,54.796875 1.5543457,53.73791 0.97587891,52.678945 0.37988281,51.587891 -3.2628499,45.022751 -7.1152947,38.577748 -10.943604,32.119629 c -0.558728,-0.949556 -1.117456,-1.899111 -1.693115,-2.877442 -0.493308,-0.832895 -0.986616,-1.665791 -1.494873,-2.523925 -2.675269,-4.928417 -3.809242,-8.503401 -3.048095,-14.054199 1.554446,-4.9251425 5.324272,-8.8128899 9.632812,-11.554688 C -4.9371301,0.12347139 -2.7869553,0.01159621 0,0 Z"
         fill="#a0e55f"
         transform="translate(595.4375,458.6875)"
         id="path12" /><path
         d="m 0,0 c 17.49,0 34.98,0 53,0 0,4.62 0,9.24 0,14 -12.54,0 -25.08,0 -38,0 0,3.63 0,7.26 0,11 10.56,0 21.12,0 32,0 0,4.62 0,9.24 0,14 -10.56,0 -21.12,0 -32,0 0,3.63 0,7.26 0,11 12.54,0 25.08,0 38,0 0,4.95 0,9.9 0,15 C 35.51,65 18.02,65 0,65 0,43.55 0,22.1 0,0 Z"
         fill="#06223d"
         transform="translate(680,771)"
         id="path13" /><path
         d="m 0,0 3.0200653,-0.06985474 3.3417664,-0.06051635 3.4985199,-0.0734558 C 20.537077,-0.41548979 31.21522,-0.5417482 41.893554,-0.63812255 c 7.1777,-0.0662189 14.352689,-0.16060631 21.528825,-0.32720947 6.26168,-0.14536608 12.521479,-0.23729368 18.784824,-0.26547428 3.313778,-0.01663 6.621409,-0.066588 9.933924,-0.1645184 20.183493,-0.5696741 14.287903,0.1041072 24.867573,-0.239207 3.3111,6.5119031 4.33998,9.78186 8.38267,18.8557227 H -15.608627 c 1.814404,-3.628808 3.805632,-6.824725 6.0624997,-10.1874996 L -7.3859711,3.8032227 C -5.0041433,-0.57546085 -4.4242428,0.09427673 0,0 Z"
         fill="#032738"
         transform="translate(455.60863,538.77881)"
         id="path14"
         sodipodi:nodetypes="cccccscccccccc" /><path
         d="m 0,0 c -27.216373,16.221699 -27.216373,16.221699 -39.652344,23.125 -3.148074,1.763216 -6.249088,3.589087 -9.347656,5.4375 -6.497686,3.810805 -13.216732,7.122433 -19.975098,10.438965 -1.913466,0.943583 -3.820087,1.899365 -5.724121,2.861816 C -87.041046,48.098501 -99.523754,54.039666 -112,60 c -3.2513,1.554114 -6.50253,3.108385 -9.75366,4.662842 -1.99536,0.953803 -3.99096,1.907114 -5.98682,2.859863 -0.89646,0.428211 -1.79292,0.856421 -2.71655,1.297607 -1.17526,0.560984 -1.17526,0.560984 -2.37427,1.133301 -1.4217,0.685963 -2.82455,1.412771 -4.20264,2.182617 C -139,73 -139,73 -143,73 c -0.89434,-1.404536 -1.76493,-2.824219 -2.625,-4.25 -0.48727,-0.788906 -0.97453,-1.577812 -1.47656,-2.390625 C -148,64 -148,64 -147.58984,61.984375 c 2.36687,-2.954235 5.41448,-4.630297 8.65234,-6.484375 0.68393,-0.400173 1.36786,-0.800347 2.07251,-1.212646 4.04588,-2.336248 8.09953,-4.433649 12.41577,-6.22876 3.24932,-1.404411 6.40996,-2.974505 9.57422,-4.558594 0.66967,-0.335237 1.33934,-0.670474 2.0293,-1.015869 5.13316,-2.587093 10.22556,-5.248586 15.312985,-7.924317 C -92.698229,32.020974 -87.851016,29.507078 -83,27 c 0.743306,-0.387202 1.486611,-0.774404 2.252441,-1.17334 16.638694,-8.587073 34.747358,-13.963443 52.708985,-19.0720213 3.755353,-1.0681958 7.47601,-2.20821 11.187012,-3.4226074 0.870117,-0.2833521 1.740234,-0.5667041 2.636718,-0.8586426 C -12.52489,1.9197886 -10.837246,1.359071 -9.1523438,0.7902832 -3.331139,-1.1103797 -3.331139,-1.1103797 0,0 Z"
         fill="#3e85a7"
         transform="translate(387,573)"
         id="path15" /><path
         d="M 0,0 C 3.2181884,1.8792779 6.1576023,3.9248016 9.09375,6.2226562 6.7321978,9.6325613 5.4873647,11.072161 2.96875,14.472656 L 0.7734375,16.613281 -0.90625,18.222656 c -2.2688817,-1.103261 -4.3320674,-2.221378 -6.4375,-3.625 -7.023299,-3.094182 -10.027304,-2.934789 -16.5625,-1.375 -5.655124,2.450426 -9.397548,6.05426 -11.250643,12.084405 -1.306903,6.492359 -0.317887,11.162665 4.250643,16.915595 3.869865,3.999788 7.336988,6.380679 13,6.625 6.646642,-0.419249 11.9443917,-3.411993 17,-7.625 2.0411979,1.615949 4.0407294,3.285638 6,5 l 2.2630679,2.119109 4.2382181,3.48886 -2.501286,2.392031 c -1.7226563,1.597656 -1.7226563,1.597656 -4.0625,3.0625 l -2.2851562,1.472656 c -6.6312173,3.662308 -11.4232855,4.99933 -18.9648438,4.902344 -0.842322,-0.0097 -1.684644,-0.0195 -2.55249,-0.02954 C -29.546968,63.323334 -35.982498,59.992972 -43.773437,52.519532 -50.495373,45.280524 -52.442457,36.70368 -52.214844,27.023438 -51.122273,17.10732 -45.555623,10.514385 -38.46875,3.9726563 -27.267174,-3.6772003 -12.553622,-5.9973638 0,0 Z"
         fill="#06203d"
         transform="translate(466.90625,772.77734)"
         id="path16"
         sodipodi:nodetypes="ccccccccccccccccccccccc" /><path
         d="m 0,0 c 31.524589,6.0577074 61.685118,18.19026 90.371414,32.258804 5.228262,2.562529 10.505716,5.008253 15.798756,7.434311 3.60167,1.663341 7.16198,3.397272 10.70483,5.181885 0.65782,0.329517 1.31565,0.659033 1.99341,0.998535 5.44198,2.742058 10.82309,5.593636 16.17212,8.512695 3.25721,1.765191 6.50613,3.277987 9.95947,4.61377 1.875,1.1875 1.875,1.1875 3,3 -0.17824,4.812352 -1.25627,8.063344 -4,12 -3.74198,-0.624719 -6.9259,-1.695803 -10.39453,-3.222656 -1.54494,-0.678087 -1.54494,-0.678087 -3.1211,-1.369873 -1.08796,-0.485091 -2.17593,-0.970181 -3.29687,-1.469971 -1.12277,-0.497336 -2.24555,-0.994673 -3.40234,-1.50708 C 116.33207,63.10491 109.00087,59.606142 101.73828,55.886719 97.769265,53.860812 93.731684,51.994971 89.6875,50.125 82.05854,46.575028 74.62313,42.711839 67.199219,38.753906 63.510586,36.789626 59.80328,34.866602 56.082031,32.964844 41.420621,25.458995 27.128082,17.466105 13,9 12.240098,8.54625 11.480195,8.0925 10.697266,7.625 2.7914846,2.8918851 2.7914846,2.8918851 0,1 0,0.67 0,0.34 0,0 Z"
         fill="#4389ac"
         transform="translate(634,573)"
         id="path17" /><path
         d="m 0,0 c 4.62,0 9.24,0 14,0 0.06999,13.701462 0.123056,27.402881 0.155437,41.104486 0.01555,6.364488 0.0366,12.728852 0.07088,19.093268 0.03297,6.159775 0.05061,12.319433 0.05831,18.47929 0.0055,2.33193 0.01617,4.663856 0.03256,6.995735 0.09582,14.218663 -0.723005,27.843941 -2.959942,41.888271 C 10.76118,131.63043 10.382139,135.71847 10,139.8125 9.126907,148.63432 7.6714983,157.29707 6,166 c -0.33,0 -0.66,0 -1,0 -3.2242541,-31.80576 -3.2242541,-31.80576 -3.7890625,-45.46875 -0.1447417,-3.46238 -0.1447417,-3.46238 -0.71702576,-6.57118 -0.62040479,-4.97426 -0.62537827,-9.84517 -0.60743713,-14.852404 -1.4603e-4,-1.073915 -2.9205e-4,-2.14783 -4.4251e-4,-3.254288 6.9408e-4,-3.533178 0.008463,-7.066303 0.01631165,-10.599472 0.001866,-2.456222 0.003289,-4.912445 0.0042877,-7.368667 0.003811,-6.452581 0.01362926,-12.90514 0.02470398,-19.357712 C -0.05842004,51.938276 -0.0538644,45.349022 -0.04882812,38.759766 -0.03811573,25.839834 -0.02105629,12.919919 0,0 Z"
         fill="#9aebf5"
         transform="translate(506,217)"
         id="path18" /><path
         d="M 0,0 C 2.3341885,2.8637579 4.5542005,5.7095616 6.5234375,8.8359375 6.9796045,9.5581348 7.4357715,10.280332 7.9057617,11.024414 8.3906103,11.800107 8.875459,12.575801 9.375,13.375 c 0.5196533,0.827256 1.039307,1.654512 1.574707,2.506836 5.850647,9.345048 11.568076,18.771219 17.28125,28.200684 2.286276,3.770494 4.579682,7.536613 6.874756,11.301757 1.135469,1.864893 2.268781,3.7311 3.399902,5.598633 2.959428,4.882037 5.943239,9.746433 8.978775,14.581436 1.601374,2.554623 3.191298,5.116275 4.780106,7.678727 0.776927,1.246475 1.559119,2.489685 2.346741,3.729431 1.100207,1.732864 2.181651,3.476196 3.259857,5.222808 0.628337,1.000474 1.256675,2.000948 1.904052,3.031739 C 61.193888,98.438945 61.216643,99.741172 60,103 c -2.951225,3.08849 -4.904854,4.78097 -9.125,5.625 C 46.919477,107.7651 46.350543,106.31003 44,103 41.95075,99.706885 40.006006,96.356329 38.0625,93 31.557661,81.882739 24.8273,70.921411 18,60 17.345801,58.952959 16.691602,57.905918 16.017578,56.827148 11.979206,50.364466 11.979206,50.364466 7.9360352,43.904785 7.3358154,42.946206 6.7355957,41.987627 6.1171875,41 5.5872217,40.154375 5.0572559,39.30875 4.5112305,38.4375 4.0125244,37.633125 3.5138184,36.82875 3,36 2.1701257,34.832714 2.1701257,34.832714 1.3234863,33.641846 -0.40920873,30.183168 -0.34059,27.58779 -0.29296875,23.730469 c 0.004245,-0.681003 0.00849,-1.362006 0.0128632,-2.063645 0.0166995,-2.160189 0.0543325,-4.31942 0.0926056,-6.479324 0.0150583,-1.47069 0.0287447,-2.941394 0.0410156,-4.412109 C -0.11353214,7.1832864 -0.06181173,3.5917367 0,0 Z"
         fill="#a7f5f7"
         transform="translate(541,222)"
         id="path19" /><path
         d="m 0,0 c 5.800429,0.71478374 8.4730695,2.4689942 13,6 -0.446703,5.862983 -2.957281,9.767965 -6,14.625 -1.09509,1.785133 -2.1901398,3.570291 -3.2851562,5.355469 -0.5957081,0.963413 -1.1914161,1.926826 -1.8051758,2.919433 -2.02686038,3.290345 -4.0320974,6.593374 -6.0307617,9.900879 -8.0569643,13.327555 -16.1769663,26.614807 -24.4077153,39.835938 -1.488319,2.390795 -2.973934,4.783257 -4.459472,7.175781 -0.920359,1.4793 -1.84092,2.958474 -2.761719,4.4375 -0.418865,0.674502 -0.837729,1.349004 -1.269287,2.043945 C -39.884338,96.884338 -39.884338,96.884338 -41,98 -45.182464,98.492055 -48.067799,98.389072 -51.5,95.9375 -54,93 -54,93 -53.988281,89.859375 c 1.255372,-4.902401 3.50052,-8.379613 6.300781,-12.546875 1.102409,-1.690007 2.202603,-3.38146 3.300781,-5.074219 0.564126,-0.865444 1.128252,-1.730888 1.709473,-2.622558 C -40.018611,65.469491 -37.510282,61.237114 -35,57 c 3.942798,-6.628284 7.980296,-13.183605 12.125,-19.6875 4.28638,-6.726897 8.405287,-13.52988 12.416016,-20.424316 C -7.1199482,11.160009 -3.6227793,5.5541285 0,0 Z"
         fill="#8ddde9"
         transform="translate(422,317)"
         id="path20" /><path
         d="m 0,0 c 4.221659,3.1063479 6.4561935,7.9663084 8.9179688,12.492188 1.1572692,2.121661 2.3486372,4.221535 3.5468752,6.320312 8.39537,14.743289 8.39537,14.743289 7.53125,21.65625 -2.09536,5.151092 -4.631663,8.371696 -9.523438,11.101562 -5.0413487,1.828881 -10.32512386,2.417213 -15.4765622,0.898438 -6.0983598,-5.112967 -9.9130268,-12.442985 -13.8124998,-19.25 -0.571699,-0.979687 -1.143399,-1.959375 -1.732422,-2.96875 -7.03137,-12.096269 -7.03137,-12.096269 -6.455078,-18.78125 1.885906,-5.4358476 5.367977,-8.7681111 10,-12 C -11.548333,-2.3497745 -5.3397412,-2.2483121 0,0 Z"
         fill="#a6f5fa"
         transform="translate(570.00391,400.53125)"
         id="path21" /><path
         d="m 0,0 c 4.7811784,2.1470197 8.0117132,4.7939068 10.820313,9.3046875 1.713929,4.9885885 1.390443,8.8895935 -0.8750005,13.6249995 -1.0139064,1.807522 -2.0597879,3.597232 -3.125,5.375 -0.7105256,1.228653 -1.4201001,2.457855 -2.1289063,3.6875 -11.778086,20.226322 -11.778086,20.226322 -18.8710942,22.3125 -6.311984,0.25433 -10.89033,-1.393174 -15.999999,-5 -3.788908,-4.18774 -5.42648,-6.934739 -5.343506,-12.681152 1.209374,-8.16392 7.542436,-16.273329 11.781006,-23.193847 0.547207,-0.922969 1.094414,-1.845938 1.658203,-2.796875 C -16.637011,1.7371638 -10.847316,-3.4602549 0,0 Z"
         fill="#94da57"
         transform="translate(418.17969,481.69531)"
         id="path22" /><path
         d="m 0,0 c 18.48,0 36.96,0 56,0 0,4.62 0,9.24 0,14 -6.93,0 -13.86,0 -21,0 0,16.83 0,33.66 0,51 -4.95,0 -9.9,0 -15,0 C 20,48.17 20,31.34 20,14 13.4,14 6.8,14 0,14 0,9.38 0,4.76 0,0 Z"
         fill="#041e3c"
         transform="translate(202,771)"
         id="path23" /><path
         d="m 0,0 c 1.3331147,-8.7616e-4 1.3331147,-8.7616e-4 2.693161,-0.00177002 2.9112833,0.00276671 5.8215178,0.03379123 8.73262,0.06524658 2.028803,0.0074674 4.057613,0.01315799 6.086426,0.01715088 5.32005,0.01521678 10.639658,0.05446447 15.959534,0.09881592 5.436442,0.0410382 10.872956,0.0592133 16.309509,0.0793457 10.652537,0.042801 21.304747,0.11100423 31.957031,0.1953125 0,4.95000004 0,9.90000044 0,15.00000044 -13.803409,0.02312 -27.606814,0.04091 -41.410239,0.05181 -6.408752,0.0052 -12.817491,0.01233 -19.226235,0.02363 -6.17912,0.01083 -12.3582272,0.01684 -18.5373558,0.01944 -2.36322605,0.0019 -4.7264514,0.0055 -7.0896721,0.01085 -3.2975168,0.0072 -6.5949801,0.0083 -9.8925041,0.0078 -0.987583,0.0036 -1.975166,0.0072 -2.992675,0.01089 -0.893275,-0.0014 -1.78655,-0.0027 -2.706894,-0.0042 -1.171138,0.0014 -1.171138,0.0014 -2.365936,0.0028 -1.778489,-0.123047 -1.778489,-0.123047 -2.778489,-1.123047 -0.5625,-2.25 -0.5625,-2.25 0,-5.0000004 2.428286,-2.1003092 5.157293,-3.5303905 8,-5 0.551623,-0.3256532 1.103246,-0.6513064 1.671585,-0.9868279 C -10.269287,0.49253046 -6.0332314,-0.10553305 0,0 Z"
         fill="#76c24a"
         transform="translate(409.26172,594.5459)"
         id="path24" /><path
         d="m 0,0 c 11.162535,-0.20996607 22.324588,-0.36916339 33.488707,-0.46630955 5.185959,-0.046663 10.370553,-0.10979043 15.555727,-0.21264553 5.018719,-0.0989125 10.036139,-0.15183375 15.055759,-0.17494011 1.900016,-0.0164321 3.799974,-0.0485121 5.699425,-0.0976753 C 84.04898,-1.3051913 93.799194,1.6090165 106,9 c 0.0427,1.666119 0.0406,3.333829 0,5 -1,1 -1,1 -2.76287,1.123048 -0.77339,-9.22e-4 -1.54677,-0.0018 -2.34359,-0.0028 -0.88486,0.0014 -1.769722,0.0027 -2.681397,0.0042 -1.467348,-0.0054 -1.467348,-0.0054 -2.96434,-0.0109 -1.024271,1.46e-4 -2.048542,2.92e-4 -3.103852,4.43e-4 -3.403473,-7e-4 -6.806893,-0.0085 -10.210357,-0.01631 -2.352697,-0.0019 -4.705394,-0.0033 -7.05809,-0.0043 -6.206071,-0.0038 -12.412118,-0.01366 -18.61818,-0.0247 -6.327308,-0.01021 -12.65462,-0.01479 -18.981933,-0.01984 C 24.85025,15.038088 12.425127,15.02101 0,15 0,10.05 0,5.1 0,0 Z"
         fill="#71c049"
         transform="translate(533,595)"
         id="path25" /><path
         d="M 0,0 C 1.447998,1.6105957 1.447998,1.6105957 2.7617188,3.6757813 3.2406055,4.4215039 3.7194922,5.1672266 4.2128906,5.9355469 4.9428223,7.1121387 4.9428223,7.1121387 5.6875,8.3125 6.1857227,9.085293 6.6839453,9.8580859 7.1972656,10.654297 10.864612,16.441439 10.864612,16.441439 11.530518,19.188721 11.685447,19.786443 11.840376,20.384165 12,21 c 1.885255,1.098996 1.885255,1.098996 4,2 4.634706,4.287103 7.405509,9.312078 10,15 -2.121736,1.338786 -4.247052,2.671155 -6.375,4 -0.603281,0.381562 -1.206563,0.763125 -1.828125,1.15625 C 13.226563,46 13.226563,46 11,46 c 2.664264,5.738416 5.415631,11.53024 10,16 2.910114,1.167528 2.910114,1.167528 6,0 2.844402,-1.803516 5.439023,-3.81602 8,-6 3.710697,3.996135 5.597916,6.370827 6,12 -1.457381,0.980584 -2.915937,1.959421 -4.375,2.9375 -0.812109,0.545273 -1.624219,1.090547 -2.460938,1.652344 -3.305317,2.153826 -5.410999,2.668292 -9.351562,2.847656 -0.92168,0.06059 -1.843359,0.121172 -2.792969,0.183594 C 16.292677,74.443125 12.608294,70.175325 9.4453125,65.441406 8.6594527,64.15595 7.8863343,62.862632 7.125,61.5625 6.7086328,60.874543 6.2922656,60.186587 5.8632812,59.477783 4.5638722,57.325269 3.2815592,55.163178 2,53 1.1443807,51.574829 0.28762833,50.150337 -0.5703125,48.726562 -2.1165521,46.159147 -3.6551743,43.587458 -5.1875,41.011719 -6.4110608,38.978604 -7.6837515,36.974373 -9,35 c 0,-1.9375 0,-1.9375 1,-4 3.0625,-2.25 3.0625,-2.25 6,-4 C -3.620409,22.413269 -6.0190348,18.489547 -8.5625,14.375 -12.869041,7.3928774 -12.869041,7.3928774 -14,4 -12.424669,3.1311629 -10.839355,2.2804093 -9.25,1.4375 -8.3682813,0.96183594 -7.4865625,0.48617188 -6.578125,-0.00390625 -3.6632029,-1.1301262 -2.8462478,-1.1206733 0,0 Z"
         fill="#6fb7cf"
         transform="translate(712,502)"
         id="path26" /><path
         d="m 0,0 h 1 c 5.9151227,36.610078 -7.1481034,54.585476 -26,79 l -22,1 c 1.431691,-2.863382 2.88693,-5.577446 4.511719,-8.324219 l 1.522705,-2.57666 1.653076,-2.786621 1.740967,-2.942871 c 3.048191,-5.144463 6.11373,-10.277881 9.204346,-15.396973 C -20.739394,35.335535 -13.28533,22.617888 -6.0144043,9.7729492 L -4.0703125,6.34375 -2.3442383,3.2871094 C -1,1 -1,1 0,0 Z"
         fill="#032333"
         transform="translate(504,447)"
         id="path27"
         sodipodi:nodetypes="ccccccccccccc" /><path
         d="m 0,0 c 2.8552346,2.5229304 4.4437692,5.3406032 6.2578125,8.671875 l 1.8813477,3.428711 0.9822387,1.805542 c 1.6874231,3.100229 3.3921251,6.190909 5.0973511,9.281372 l 1.009674,1.831482 C 17.605814,29.319145 20.057637,33.561014 22.625,37.75 27.033194,44.968732 31.176376,52.328621 35.309082,59.708008 38.76756,65.871399 42.329068,71.960671 46,78 37.621403,77.754962 30.614591,77.590439 21.426735,77.523565 7.2020373,55.151626 -5.3733003,36.411569 0,0 Z"
         fill="#042431"
         transform="translate(518,448)"
         id="path28"
         sodipodi:nodetypes="ccccccccccc" /><path
         d="M 0,0 C 1.5536012,1.9828062 2.8351597,3.8554078 4.125,6 4.5104297,6.6201196 4.8958594,7.2402393 5.2929687,7.8791504 9.1370005,14.107934 12.832822,20.428875 16.515625,26.753906 18.512585,30.179833 20.54654,33.58139 22.600098,36.973633 24.414551,39.973837 26.209455,42.985484 28,46 c 0.636797,1.068633 1.273594,2.137266 1.929687,3.238281 0.559454,0.973242 1.118907,1.946485 1.695313,2.949219 0.730898,1.25877 0.730898,1.25877 1.476562,2.542969 C 34,57 34,57 33.882812,59.128906 32.742056,61.546705 31.522793,62.365818 29.25,63.75 28.574531,64.177969 27.899062,64.605937 27.203125,65.046875 24.469374,66.229562 22.956017,66.464136 20,66 18.078125,63.687012 18.078125,63.687012 16.25,60.429687 15.914698,59.845203 15.579395,59.260719 15.233933,58.658524 14.138364,56.740083 13.069485,54.808082 12,52.875 11.249072,51.549447 10.496209,50.224989 9.7414551,48.901611 8.21548,46.222909 6.6980157,43.539651 5.1860352,40.853027 1.6092266,34.519927 -2.1514145,28.295334 -5.8886719,22.056152 -7.2795334,19.715176 -8.6467608,17.362889 -10,15 -10.432319,14.262173 -10.864639,13.524346 -11.310059,12.76416 -12.480469,10.644531 -12.480469,10.644531 -14,7 -12.737307,3.578861 -11.381875,2.2790671 -8.125,0.6875 -7.4469531,0.34074219 -6.7689062,-0.00601562 -6.0703125,-0.36328125 -3.4511493,-1.1687975 -2.4754931,-1.2135718 0,0 Z"
         fill="#87d3e3"
         transform="translate(668,426)"
         id="path29" /><path
         d="M 0,0 C 3.3283087,0.16014221 6.5154912,2.2778239 8.8422267,4.6631093 9.2829415,5.1149143 9.6835938,6.359375 9.6835938,6.359375 12.024353,9.2766421 12.097196,12.692692 11.546875,15.878906 10.339205,22.871 6.3965314,29.973854 0.6875,34.1875 -3.0185532,36.922814 -7.2182145,38.092439 -12.747332,37.421113 -19.571246,36.404717 -22.762829,31.199242 -24,26 -25.508191,19.661788 -22.4463,12.174541 -18.023437,7.390625 -13.615432,2.6227804 -6.4857892,-0.312065 0,0 Z"
         fill="#e4f7f9"
         transform="translate(459,276)"
         id="path31"
         sodipodi:nodetypes="aacaacaaa" /><path
         d="m 0,0 c 4.95,0 9.9,0 15,0 0,21.45 0,42.9 0,65 C 10.05,65 5.1,65 0,65 0,43.55 0,22.1 0,0 Z"
         fill="#051d3d"
         transform="translate(373,771)"
         id="path32" /><path
         d="M 0,0 C 4.6922365,1.5932585 9.651649,5.231614 11,10 12.625515,15.748566 9.2048855,22.163415 6.015625,27.214844 3.3936479,31.36776 -0.21134688,35.909002 -5,37 -9.7321459,38.078124 -15.307188,36.149396 -19,33 -22.2856,30.197893 -24.729201,25.572764 -24.480469,21.261719 -24.023561,13.342541 -18.758656,5.1524353 -12,1 -8.5800377,-1.1011828 -3.8007364,-1.2905478 0,0 Z"
         fill="#e0f0f3"
         transform="translate(304,530)"
         id="path34"
         sodipodi:nodetypes="aaaaaaaa" /><path
         d="m 0,0 c 5.4118404,3.1662835 6.9617783,10.435876 10.1875,15.8125 1.217809,2.029841 2.30494,4.135276 3.457031,6.203125 0.571252,1.025321 1.132198,2.056447 1.713379,3.076172 1.484071,2.603911 3.011523,5.18288 4.528809,7.767578 0.426636,0.726775 0.853437,1.453477 1.286377,2.176514 0.784019,1.309361 1.772493,2.512164 2.374511,3.91455 1.143785,2.664417 2.697609,5.523356 2.284424,8.393311 -0.22833,1.585967 -1.100697,3.349214 -2.519531,4.09375 C 20.855564,52.726782 17.376459,52.432211 15,51 11.591021,48.945523 10.840279,44.211169 8.875,40.75 7.6984814,38.677963 6.6102289,36.557028 5.484375,34.457031 4.9046564,33.375712 4.3469998,32.282433 3.7519531,31.209473 2.0358989,28.115165 0.2418085,25.064619 -1.546875,22.011719 -2.1048563,21.059364 -2.6729095,20.112931 -3.2416992,19.166992 -4.3142131,17.383323 -5.6060682,15.717575 -6.480957,13.829102 -8.0068093,10.535504 -10.427781,7.0955407 -9.9296875,3.5 -9.7118345,1.9274051 -8.6750538,0.26231167 -7.25,-0.4375 -5.076835,-1.5046922 -2.0896854,-1.2226038 0,0 Z"
         fill="#04242e"
         transform="translate(600,472)"
         id="path36"
         sodipodi:nodetypes="sssssssssssssssssss" /><path
         d="m 0,0 c 0.33,0 0.66,0 1,0 0.1752933,4.4798045 0.3010933,8.9577056 0.3845215,13.439941 0.034834,1.518909 0.082323,3.03759 0.1435547,4.555664 C 1.9519352,28.787983 0.87161351,36.109746 -6,45 c -0.66,0.66 -1.32,1.32 -2,2 -6.47049,0 -9.634988,-2.661523 -14,-7 0.567272,-3.616752 1.49279,-6.222712 3.40625,-9.335938 0.492664,-0.810498 0.985327,-1.620996 1.49292,-2.456054 0.528274,-0.852393 1.056548,-1.704785 1.60083,-2.583008 1.090041,-1.783734 2.179883,-3.567589 3.269531,-5.351563 0.543501,-0.884619 1.087002,-1.769238 1.646973,-2.680664 1.4675705,-2.40296 2.9124662,-4.817368 4.3452148,-7.24121 0.4124999,-0.6968999 0.825,-1.3937993 1.25,-2.1118169 C -4.2166874,6.9339966 -3.4470876,5.6270663 -2.6796875,4.3188477 -1.8137362,2.8626607 -0.91112043,1.4283598 0,0 Z"
         fill="#9beaf0"
         transform="translate(483,220)"
         id="path37" /><path
         d="M 0,0 H 1 C 2.0827609,16.289536 2.9759201,28.518911 -7.285347,41.595544 -8.5327905,43.823971 -9.2474435,43.228427 -10,45 c -4.497971,-1.686739 -8.728863,-3.816739 -13,-6 4.268729,-9.16215 9.342554,-17.605759 14.7880859,-26.102051 1.1369848,-1.780604 2.2595186,-3.5692671 3.3759766,-5.3627928 L -2.9375,4.5 -1.2773437,1.84375 Z"
         fill="#abeb64"
         transform="translate(488,348)"
         id="path39"
         sodipodi:nodetypes="cccccccccc" /><path
         d="M 0,0 C 5.0893881,1.5904338 8.8745664,4.7446951 13,8 11.702372,11.497417 10.186208,14.517169 8.125,17.625 7.6325781,18.380391 7.1401563,19.135781 6.6328125,19.914062 2.9488158,24.620412 -2.1313407,26.620126 -7.4375,29.0625 -8.1883789,29.41377 -8.9392578,29.765039 -9.7128906,30.126953 -13.437171,31.85971 -17.163024,33.527761 -21,35 c 1.400852,-3.81324 3.173286,-7.092216 5.335937,-10.527344 0.652266,-1.039629 1.304532,-2.079258 1.976563,-3.15039 0.680625,-1.075723 1.36125,-2.151446 2.0625,-3.259766 0.672891,-1.071855 1.345781,-2.143711 2.0390625,-3.248047 C -6.4524007,9.8334867 -3.3033201,4.8702797 0,0 Z"
         fill="#3d85a5"
         transform="translate(269,572)"
         id="path40" /><path
         d="m 0,0 c 3.596047,3.3720424 6.1910327,6.616419 8.6289063,10.894531 l 1.9472657,3.396485 0.98999,1.755127 c 0.990228,1.755525 1.991143,3.504571 2.994385,5.252685 C 17.88127,27.122608 21.082218,32.963979 24,39 c -1.599109,1.008069 -3.204483,2.006204 -4.8125,3 l -2.707031,1.6875 C 14,45 14.327549,45.029777 11.565767,45.74443 10.083394,43.142042 8.0389987,39.793218 6.5625,37.1875 L 5.2871094,34.951172 4.0664062,32.792969 2.9396973,30.809326 C 1.0488115,27.168548 0.82151239,24.058577 0.68359375,20.019531 L 0.55664062,16.494141 0.4375,12.8125 0.30664062,9.0957031 C 0.2004691,6.0639162 0.09842048,3.0320469 0,0 Z"
         fill="#b0f068"
         transform="translate(533,347)"
         id="path41"
         sodipodi:nodetypes="cccscccccccccccccc" /><path
         d="M 0,0 C 1.688868,-0.12032665 3.5928002,0.45065515 4.8125,1.625 6.2897569,3.0473246 7.1156749,5.3275835 7,7.375 6.902141,9.1070785 5.4601689,10.485915 4.6132812,12 4.1112341,12.897571 3.555629,13.764162 3.0175781,14.640625 2.4556144,15.55604 1.873743,16.459142 1.3125,17.375 0.75658937,18.282156 0.26575015,19.230576 -0.33398438,20.109375 -3.0046006,24.022663 -4.7496035,29.282121 -9,31.375 c -1.495232,0.736247 -3.460201,0.637806 -5,0 -1.742084,-0.721595 -3.636499,-2.149751 -4,-4 -1.058416,-5.387419 3.02668,-9.712859 6.375,-15.1875 0.498635,-0.815289 1.5,-2.4433594 1.5,-2.4433594 C -4.282641,0.00367454 -4.3181938,0.30765803 0,0 Z"
         fill="#042330"
         transform="translate(412,492.625)"
         id="path42"
         sodipodi:nodetypes="saaaaaaaaascs" /><path
         d="M 0,0 C 1.7988889,0.43762546 2.4171446,2.8108537 3.5,4.3125 4.1359213,5.1943619 4.683751,6.1367574 5.2539062,7.0625 5.8512559,8.0323975 6.4141426,9.0231178 7,10 7.5886129,10.981477 8.3019274,11.896471 8.7773438,12.9375 10.678273,17.100004 15.037523,21.902627 13,26 11.735023,28.543816 7.7278164,29.406013 4.951416,28.803711 2.958491,28.371373 1.8066271,26.166237 0.52734375,24.578125 0.01062892,23.936671 -0.33670672,23.175488 -0.75976562,22.46875 -1.2002661,21.732875 -1.6233356,20.986673 -2.0625,20.25 -2.4958161,19.523137 -2.9410367,18.803431 -3.3769531,18.078125 -4.2152428,16.683324 -5.0328515,15.276091 -5.8789062,13.885986 -6.8443714,12.299685 -8.1183601,10.873159 -8.8164063,9.1523438 -9.4371728,7.622037 -10.62564,5.7834619 -9.875,4.3125 -8.2423467,1.1131377 -3.4900706,-0.8490484 0,0 Z"
         fill="#042941"
         transform="translate(565,412)"
         id="path43"
         sodipodi:nodetypes="aaaaaaaaaaaaaaa" /><path
         d="M 0,0 C 3.8896613,1.4862243 5.265206,3.5412241 7.375,7.0625 7.9718359,8.0396094 8.5686719,9.0167188 9.1835938,10.023438 10.082715,11.496836 10.082715,11.496836 11,13 c 1.136261,1.735472 2.281183,3.465326 3.4375,5.1875 0.493711,0.736055 0.987422,1.472109 1.496094,2.230469 C 16.285508,20.940039 16.637422,21.462109 17,22 15,23 15,23 12.709229,22.243164 11.775222,21.838076 10.841216,21.432988 9.8789063,21.015625 8.8611914,20.574766 7.8434766,20.133906 6.7949219,19.679687 5.7282227,19.207891 4.6615234,18.736094 3.5625,18.25 2.499668,17.793672 1.4368359,17.337344 0.34179688,16.867187 -8.6315864,12.939559 -8.6315864,12.939559 -11,10 -11.125,8.0625 -11.125,8.0625 -10,6 -8.293939,4.9258134 -6.5814818,3.8525927 -4.7890625,2.9296875 -2.7463695,1.9093059 -2.7463695,1.9093059 0,0 Z"
         fill="#4186a5"
         transform="translate(759,585)"
         id="path44" /><path
         d="M 0,0 C 2.2724634,2.0913455 3.6910227,4.0225876 5.0429687,6.7929687 5.3942383,7.5051758 5.7455078,8.2173828 6.1074219,8.9511719 6.4638477,9.6891602 6.8202734,10.427148 7.1875,11.1875 7.5555273,11.93709 7.9235547,12.68668 8.3027344,13.458984 9.2072822,15.303322 10.104376,17.151312 11,19 5.1186551,17.109568 -0.69961037,15.061641 -6.5,12.9375 -7.2186523,12.680171 -7.9373047,12.422842 -8.6777344,12.157715 -13.884676,10.230648 -13.884676,10.230648 -15,8 -14.168555,7.5900781 -13.337109,7.1801562 -12.480469,6.7578125 -11.393789,6.2189844 -10.307109,5.6801562 -9.1875,5.125 -8.1085547,4.5913281 -7.0296094,4.0576562 -5.9179687,3.5078125 -2.9216174,2.0277886 -2.9216174,2.0277886 0,0 Z"
         fill="#81c352"
         transform="translate(650,539)"
         id="path47" /><path
         d="m 0,0 c 4.0622555,0.57823096 6.8476235,1.8911774 10.3125,4.0625 0.883008,0.5478516 1.766016,1.0957031 2.675781,1.6601562 C 13.652148,6.1441797 14.316016,6.5657031 15,7 12.602868,9.7579159 10.268912,10.915867 6.8945312,12.261719 5.420166,12.856299 5.420166,12.856299 3.9160156,13.462891 2.3797754,14.069072 2.3797754,14.069072 0.8125,14.6875 -0.22326172,15.103223 -1.2590234,15.518945 -2.3261719,15.947266 -4.881454,16.971734 -7.4393667,17.988998 -10,19 -8.8526908,16.024585 -7.6535734,13.208586 -6.0546875,10.449219 -5.7001953,9.8336914 -5.3457031,9.2181641 -4.9804687,8.5839844 -4.6156641,7.9581445 -4.2508594,7.3323047 -3.875,6.6875 -3.5024609,6.0423242 -3.1299219,5.3971484 -2.7460938,4.7324219 -1.8336779,3.1532406 -0.91724491,1.5763814 0,0 Z"
         fill="#7bca55"
         transform="translate(368,540)"
         id="path48" /><path
         d="M 0,0 C 1.6406496,-0.44500105 3.6780889,0.4214556 4.8125,1.6875 5.9827226,2.9935114 6.3267226,5.0896131 6,6.8125 5.1095926,11.507833 2.1047836,16.400611 -2.125,18.625 c -1.1800994,0.620599 -2.9021252,0.756603 -4,0 -2.3129689,-1.593989 -3.4750156,-5.106429 -3,-7.875 C -8.3301781,6.1174767 -4.536311,1.2304049 0,0 Z"
         fill="#0d3048"
         transform="translate(454.125,285.375)"
         id="path49"
         sodipodi:nodetypes="aaaaaaa" /><path
         d="m 0,0 c 2.1555899,0.15352857 4.8259142,1.5348699 5.375,3.625 1.3256751,5.0462667 -2.1008525,12.205404 -7,14 -2.3836993,0.873168 -5.9907977,-0.670632 -7,-3 C -10.411984,10.500412 -7.0342276,5.286984 -4.0234375,1.9492187 -3.0252702,0.84264933 -1.4864806,-0.10587229 0,0 Z"
         fill="#062039"
         transform="translate(299.625,539.375)"
         id="path50"
         sodipodi:nodetypes="aaaaaa" /><path
         d="M 0,0 C 0,0.66 0,1.32 0,2 -4.95,4.475 -4.95,4.475 -10,7 -10.33,6.01 -10.66,5.02 -11,4 -4.5,0 -4.5,0 0,0 Z"
         fill="#0a4f6f"
         transform="translate(726,534)"
         id="path53" /></g></g></svg>
